# xmcd
#
# Track frame offsets:
#	150
#	10373
#	22026
#	37364
#	49795
#	68444
#	82370
#	95312
#	108264
#	122037
#	133537
#
# Disc length: 1957 seconds
#
# Revision: 0
# Processed by: cddbd v1.5.1PL2 Copyright (c) Steve Scherf et al.
# Submitted via: audiograbber 1.83.01
#
DISCID=9407a30b
DTITLE=Goldie Hawn - Goldie
DYEAR=2002
DGENRE=Vocal Pop
TTITLE0=My Blue Tears
TTITLE1=Wynken, Blynken And Nod
TTITLE2=Butterfly
TTITLE3=Uncle Pen
TTITLE4=The House Song
TTITLE5=I'll Be Your Baby Tonight
TTITLE6=Carey
TTITLE7=Cloudy Summer Afternoon
TTITLE8=Ring Bell
TTITLE9=I Wanna Roo You
TTITLE10=Pasadena
EXTD=Credits:\nBuck Owens - Arranger   Dolly Parton - Arranger   Chuck Britz 
EXTD=Engineer   Nick DeCaro - Arranger   Nick DeCaro - Vocal Director   Al
EXTD=an Silverman - Mastering   Charlie Tallent - Engineer   Porter Wagoner -
EXTD=Arranger   Lenny Waronker - Producer   Andrew Wickham - Producer   The
EXTD=Buckaroos - Performer   Ed Thrasher - Art Direction   Lucas Deaver - Ar
EXTD=t Direction   Dan O'Leary - Producer   Jimmy Joyce Singers and Orchestra -
EXTD=Performer   Goldie Hawn - Main Performer
EXTT0=
EXTT1=
EXTT2=
EXTT3=
EXTT4=
EXTT5=
EXTT6=
EXTT7=
EXTT8=
EXTT9=
EXTT10=
PLAYORDER=
